<?xml version="1.0" encoding="utf-8"?>
<!-- Generator: Adobe Illustrator 26.0.2, SVG Export Plug-In . SVG Version: 6.00 Build 0)  -->
<svg version="1.1" id="Layer_1" xmlns="http://www.w3.org/2000/svg" xmlns:xlink="http://www.w3.org/1999/xlink" x="0px" y="0px"
	 viewBox="0 0 661 93" style="enable-background:new 0 0 661 93;" xml:space="preserve">
<style type="text/css">
	.st0{fill:#C1348B;}
	.st1{fill:#3A73B3;}
	.st2{fill:#005E7B;}
	.st3{fill:#DA4F37;}
	.st4{fill:none;}
	.st5{fill:#F7DC56;}
	.st6{fill:#62B55A;}
</style>
<path class="st0" d="M70.2,17.2L53.5,71.6c-0.5,1.5,0.4,3.1,1.9,3.6l4.5,1.4c1.5,0.5,3.1-0.4,3.6-1.9l16.6-54.4
	c0.5-1.5-0.4-3.1-1.9-3.6l-4.5-1.4C72.2,14.8,70.6,15.7,70.2,17.2z"/>
<path class="st0" d="M102.2,40.7h-44c-0.6,0-1.1,0.5-1.1,1.1V50c0,0.6,0.5,1.1,1.1,1.1h44c0.6,0,1.1-0.5,1.1-1.1v-8.3
	C103.3,41.2,102.8,40.7,102.2,40.7z"/>
<path class="st0" d="M86.7,15.3l-4.5,1.4c-1.5,0.5-2.3,2.1-1.9,3.6L97,74.6c0.5,1.5,2.1,2.3,3.6,1.9l4.5-1.4
	c1.5-0.5,2.3-2.1,1.9-3.6L90.2,17.2C89.8,15.7,88.2,14.8,86.7,15.3z"/>
<path class="st1" d="M151,15.2h-11.3v61.5H151V15.2z"/>
<path class="st1" d="M-180.8,115.7L-180.8,115.7c0,1.6,1.7,2.9,3.8,2.9h20.4c2.1,0,3.8-1.3,3.8-2.9v0c0-1.6-1.7-2.9-3.8-2.9H-177
	C-179.1,112.9-180.8,114.2-180.8,115.7z"/>
<path class="st2" d="M224.2,17.2l-16.6,54.4c-0.5,1.5,0.4,3.1,1.9,3.6l4.5,1.4c1.5,0.5,3.1-0.4,3.6-1.9l16.6-54.4
	c0.5-1.5-0.4-3.1-1.9-3.6l-4.5-1.4C226.3,14.8,224.7,15.7,224.2,17.2z"/>
<path class="st2" d="M256.3,40.7h-44c-0.6,0-1.1,0.5-1.1,1.1V50c0,0.6,0.5,1.1,1.1,1.1h44c0.6,0,1.1-0.5,1.1-1.1v-8.3
	C257.3,41.2,256.9,40.7,256.3,40.7z"/>
<path class="st2" d="M240.8,15.3l-4.5,1.4c-1.5,0.5-2.3,2.1-1.9,3.6L251,74.6c0.5,1.5,2.1,2.3,3.6,1.9l4.5-1.4
	c1.5-0.5,2.3-2.1,1.9-3.6l-16.6-54.4C243.9,15.7,242.3,14.8,240.8,15.3z"/>
<path class="st3" d="M304.9,18"/>
<path class="st3" d="M304.9,18"/>
<path class="st3" d="M312.7,78.2c-11.6,0-19.7-4.2-23-14.7c-0.7-2.4-1-5-1-7.5"/>
<path class="st3" d="M288.7,56h7.6c0,2,0.3,4,0.9,5.9c2.5,6.7,7.3,8.9,15.5,8.9c7.4,0,15.8-3,15.8-11.1s-6.7-10-13.3-10.8l0-7.3
	c10.3,1,20.3,5.4,20.3,18.1c0,12.2-10.6,18.4-22.9,18.4"/>
<path class="st3" d="M311.3,13.6c-9.6,0-22,4.4-22,17.5s9.8,17,19.8,17.4v-7.3c-6.2-0.6-12.3-2.7-12.3-10c0-8,7.6-10.4,14.3-10.4
	c7,0,12.5,2.7,14.4,8.5c0.3,1.1,0.6,2.2,0.7,3.4h7.5c-0.1-2.2-0.5-4.3-1.2-6.3"/>
<path class="st3" d="M332.5,26.2c-3-8.3-11.3-12.6-21.2-12.6"/>
<path class="st3" d="M312.7,78.2c-11.6,0-19.7-4.2-23-14.7c-0.7-2.4-1-5-1-7.5"/>
<path class="st3" d="M288.7,56h7.6c0,2,0.3,4,0.9,5.9c2.5,6.7,7.3,8.9,15.5,8.9c7.4,0,15.8-3,15.8-11.1s-6.7-10-13.3-10.8l0-7.3
	c10.3,1,20.3,5.4,20.3,18.1c0,12.2-10.6,18.4-22.9,18.4"/>
<path class="st3" d="M311.3,13.6c-9.6,0-22,4.4-22,17.5s9.8,17,19.8,17.4v-7.3c-6.2-0.6-12.3-2.7-12.3-10c0-8,7.6-10.4,14.3-10.4
	c7,0,12.5,2.7,14.4,8.5c0.3,1.1,0.6,2.2,0.7,3.4h7.5c-0.1-2.2-0.5-4.3-1.2-6.3"/>
<path class="st3" d="M332.5,26.2c-3-8.3-11.3-12.6-21.2-12.6"/>
<line class="st4" x1="442.7" y1="23.4" x2="884" y2="23.4"/>
<path class="st5" d="M402.1,32.1c0-5.2-3.8-9.3-9.1-9.4c-4.6-0.1-13.6-0.1-13.6-0.1v-7.3H393c9.2-0.2,16.1,7.5,16.1,16.7"/>
<path class="st5" d="M409,32.2c0,9.3-7.4,16.9-16.1,16.7h-13.6v-7.3c0,0,8.9,0,13.6-0.1c4.6-0.1,9.1-4.2,9.1-9.4"/>
<path class="st5" d="M366.3,76.4V15.4h7l0,60.9"/>
<path class="st5" d="M402.1,32.1c0-5.2-3.8-9.3-9.1-9.4c-4.6-0.1-13.6-0.1-13.6-0.1v-7.3H393c9.2-0.2,16.1,7.5,16.1,16.7"/>
<path class="st5" d="M409,32.2c0,9.3-7.4,16.9-16.1,16.7h-13.6v-7.3c0,0,8.9,0,13.6-0.1c4.6-0.1,9.1-4.2,9.1-9.4"/>
<path class="st5" d="M366.3,76.4V15.4h7l0,60.9"/>
<polyline class="st4" points="960.8,83.5 519.5,83.5 519.5,21.1 960.8,21.1 "/>
<path class="st0" d="M472.7,17.1h-41.8v7h41.8V17.1z"/>
<path class="st0" d="M472.7,68.9h-41.8v7h41.8V68.9z"/>
<path class="st0" d="M472.7,42.4h-41.8v7h41.8V42.4z"/>
<polyline class="st4" points="962.8,84.5 521.6,84.5 521.6,22.1 962.8,22.1 "/>
<path class="st0" d="M472.7,68.9h-41.8v7h41.8V68.9z"/>
<path class="st0" d="M472.7,42.4h-41.8v7h41.8V42.4z"/>
<path class="st6" d="M537.5,77.7L523.9,55h8.2l13.5,22.7H537.5z"/>
<path class="st6" d="M526.8,16.8c9.2-0.2,16,7.5,16,16.7s-7.4,16.9-16.1,16.7h-16.1V43c0,0,11.4,0,16.2-0.1c4.6-0.1,9.1-4.2,9.1-9.4
	s-3.8-9.3-9.1-9.4c-4.6-0.1-16.2-0.1-16.2-0.1v-7.3H526.8z"/>
<path class="st6" d="M504.5,16.8h-6.9v60.9h6.9V16.8z"/>
<path class="st6" d="M537.5,77.7L523.9,55h8.2l13.5,22.7H537.5z"/>
<path class="st6" d="M526.8,16.8c9.2-0.2,16,7.5,16,16.7s-7.4,16.9-16.1,16.7h-16.1V43c0,0,11.4,0,16.2-0.1c4.6-0.1,9.1-4.2,9.1-9.4
	s-3.8-9.3-9.1-9.4c-4.6-0.1-16.2-0.1-16.2-0.1v-7.3H526.8z"/>
<path class="st6" d="M504.5,16.8h-6.9v60.9h6.9V16.8z"/>
<path class="st0" d="M586.3,19.3l-16.6,54.4c-0.5,1.5,0.4,3.1,1.9,3.6l4.5,1.4c1.5,0.5,3.1-0.4,3.6-1.9l16.6-54.4
	c0.5-1.5-0.4-3.1-1.9-3.6l-4.5-1.4C588.3,17,586.7,17.8,586.3,19.3z"/>
<path class="st0" d="M618.3,42.9h-44c-0.6,0-1.1,0.5-1.1,1.1v8.3c0,0.6,0.5,1.1,1.1,1.1h44c0.6,0,1.1-0.5,1.1-1.1v-8.3
	C619.4,43.3,618.9,42.9,618.3,42.9z"/>
<path class="st0" d="M602.8,17.4l-4.5,1.4c-1.5,0.5-2.3,2.1-1.9,3.6l16.6,54.4c0.5,1.5,2.1,2.3,3.6,1.9l4.5-1.4
	c1.5-0.5,2.3-2.1,1.9-3.6l-16.6-54.4C605.9,17.8,604.3,17,602.8,17.4z"/>
<line class="st4" x1="199" y1="49" x2="640.3" y2="49"/>
<path class="st5" d="M176.1,36.7c0-6.8-4.2-12-10-12.1c-5-0.1-15-0.1-15-0.1v-9.4h15c10.1-0.2,17.7,9.6,17.7,21.6"/>
<path class="st5" d="M183.7,56.2c0,11.3-8.1,20.7-17.7,20.5h-15v-8.9c0,0,9.7,0,15-0.1c5.1-0.1,10-5.1,10-11.5"/>
<line class="st4" x1="199" y1="49" x2="640.3" y2="49"/>
<path class="st5" d="M176.1,36.7c0-6.8-4.2-12-10-12.1c-5-0.1-15-0.1-15-0.1v-9.4h15c10.1-0.2,17.7,9.6,17.7,21.6"/>
<path class="st5" d="M183.7,56.2c0,11.3-8.1,20.7-17.7,20.5h-15v-8.9c0,0,9.7,0,15-0.1c5.1-0.1,10-5.1,10-11.5"/>
<line class="st4" x1="180.5" y1="56.1" x2="189.5" y2="56.2"/>
<line class="st4" x1="180.4" y1="58.2" x2="189.5" y2="58.2"/>
<line class="st4" x1="180.4" y1="58.2" x2="189.5" y2="58.2"/>
<line class="st4" x1="180.4" y1="58.2" x2="189.5" y2="58.2"/>
<path class="st5" d="M176.1,36.3c0,0,0,14.3-0.1,21.5l7.7,0l0-21.5L176.1,36.3z"/>
</svg>
